Coordinates
version=1
nRows=9
nColumns=36
inDegrees=yes

Units are S.I. units (second, meters, Newtons, ...)
If the header above contains a line with 'inDegrees', this indicates whether rotational values are in degrees (yes) or radians (no).

endheader
time	pelvis_tilt	pelvis_list	pelvis_rotation	pelvis_tx	pelvis_ty	pelvis_tz	hip_flexion_r	hip_adduction_r	hip_rotation_r	knee_angle_r	knee_angle_r_beta	ankle_angle_r	subtalar_angle_r	mtp_angle_r	hip_flexion_l	hip_adduction_l	hip_rotation_l	knee_angle_l	knee_angle_l_beta	ankle_angle_l	subtalar_angle_l	mtp_angle_l	lumbar_extension	lumbar_bending	lumbar_rotation	arm_flex_r	arm_add_r	arm_rot_r	elbow_flex_r	pro_sup_r	arm_flex_l	arm_add_l	arm_rot_l	elbow_flex_l	pro_sup_l
      2.92916670	    -14.28471336	      0.83472366	     -2.27182100	     -0.28200667	      1.25176004	      0.00352574	     19.68262811	      0.72395363	      2.65472828	     36.08431221	      0.62979006	    -16.07992150	    -23.20391719	     -7.49999987	     35.52014157	     -7.30635136	     -0.78165209	     44.84508056	      0.78269431	      2.44329149	     -6.65395220	     -7.49999987	    -14.70928888	     -2.53818492	     -2.66889892	    -11.33176220	    -16.40968622	    -18.17336183	     60.14575245	     80.00345196	    -10.10460371	    -27.83525507	     -9.66689413	     73.85892178	     78.00502976
      2.93333330	    -14.32886049	      0.85766481	     -2.33787492	     -0.27512702	      1.25244871	      0.00305566	     20.42410908	      0.78228840	      2.64810357	     35.97842298	      0.62794194	    -15.01392510	    -22.76673607	     -7.49999987	     35.50290614	     -7.26753808	     -0.59712623	     43.48789393	      0.75900693	      2.46431967	     -6.29394256	     -7.49999987	    -14.85289612	     -2.51314384	     -2.65067221	    -11.17147257	    -16.44782477	    -17.37521038	     58.41977114	     78.40638186	     -9.57385232	    -28.09018430	     -8.64260994	     73.17454436	     76.57108077
      2.93750000	    -14.33844112	      0.69101736	     -2.40180886	     -0.27221298	      1.25082089	      0.00301177	     21.42988195	      1.05597968	      2.88019855	     35.94064082	      0.62728252	    -14.16636005	    -22.09605850	     -7.49999987	     35.62111034	     -7.38383551	     -0.35978610	     42.24070918	      0.73723945	      3.06165174	     -5.49815981	     -7.49999987	    -15.16836352	     -2.25285727	     -2.69646019	    -10.72368850	    -16.41118063	    -16.80753994	     56.75232129	     78.52568996	     -9.04810850	    -28.14706408	     -8.16732382	     72.71012790	     76.65571692
      2.94166670	    -14.40823621	      0.61220577	     -2.26100439	     -0.26492969	      1.24649919	      0.00206447	     22.05025086	      1.16974540	      2.91002809	     35.42621444	      0.61830408	    -13.41717813	    -21.33342321	     -7.49999987	     35.73918309	     -7.29793783	     -0.04622591	     41.17739474	      0.71868112	      3.60700492	     -4.89149970	     -7.49999987	    -15.01492111	     -2.08083019	     -2.99007863	    -10.43931548	    -16.41054716	    -16.07577810	     54.83425132	     78.67098178	     -8.67126856	    -28.34756902	     -7.46924239	     72.14130060	     76.77136337
      2.94583330	    -14.28948716	      0.48207941	     -2.14611554	     -0.25597469	      1.24589424	      0.00435968	     21.97487318	      1.40367287	      2.95253221	     34.16169436	      0.59623404	    -12.08531255	    -20.92181593	     -7.49999987	     35.34363568	     -7.36246353	      0.18186051	     39.68397226	      0.69261598	      4.09438619	     -4.01872401	     -7.49999987	    -14.87758425	     -1.86757926	     -3.23328593	    -10.37002342	    -16.27627577	    -15.44366852	     52.97271612	     78.92621403	     -8.45676733	    -28.55372877	     -6.85486154	     71.54352619	     76.99249517
      2.95000000	    -14.39754334	      0.23928415	     -2.16484806	     -0.25276853	      1.24045543	     -0.00041777	     22.57490004	      1.57853482	      2.80691749	     33.54904825	      0.58554135	    -10.93441527	    -20.26336486	     -7.49999987	     35.43980285	     -7.39494074	      0.56454126	     38.50818936	      0.67209469	      4.68791986	     -2.97359602	     -7.49999987	    -14.66415906	     -1.44160905	     -3.20840430	    -10.36622984	    -16.57104291	    -14.90629611	     51.75621610	     78.98891230	     -8.22106955	    -28.53701906	     -6.28075349	     71.56522996	     77.07407206
      2.95416670	    -14.29894408	      0.17714944	     -2.29026552	     -0.24785041	      1.24258612	     -0.00008541	     22.76877436	      1.61913356	      2.95218018	     32.48680257	      0.56700167	    -10.45377542	    -19.92883510	     -7.49999987	     35.08095489	     -7.39217624	      0.72034758	     36.77169633	      0.64178717	      4.38068135	     -2.70814160	     -7.49999987	    -14.66841370	     -1.21681955	     -3.28910760	     -9.88301950	    -17.03767323	    -13.26566941	     49.84303176	     78.32049516	     -7.88210176	    -28.68974726	     -5.13999465	     71.05727076	     76.59883582
      2.95833330	    -14.21997965	     -0.03883834	     -2.35377073	     -0.24264134	      1.23647608	      0.00126205	     23.37341181	      1.90244529	      3.08062299	     32.02835080	      0.55900018	    -10.35383910	    -20.38645149	     -7.49999987	     35.10516048	     -7.67331445	      0.97838506	     35.68709134	      0.62285724	      4.27441516	     -2.48940089	     -7.49999987	    -14.79000805	     -0.83139713	     -3.33776880	    -10.01009476	    -17.14453451	    -13.17136041	     49.49689257	     78.44289454	     -7.82863535	    -28.70232801	     -5.07319867	     71.20210886	     76.72502651
      2.96250000	    -14.57293685	     -0.17144811	     -2.51790383	     -0.23640988	      1.23427537	     -0.00022373	     24.25274269	      2.07660900	      3.21197263	     31.29814534	      0.54625569	    -10.21449921	    -20.32944599	     -7.49999987	     35.45530442	     -7.85145145	      1.14673794	     34.69362270	      0.60551795	      4.21510227	     -2.03238936	     -7.49999987	    -14.13666703	     -0.58864554	     -3.44253242	     -9.76256988	    -17.66603614	    -11.34362623	     47.59281782	     78.61521346	     -7.93318311	    -28.86152016	     -4.15896415	     71.24411128	     77.07651602
